<svg id="Layer_1" data-name="Layer 1" xmlns="http://www.w3.org/2000/svg" viewBox="0 0 83.83 73.74"><path d="M47.17,17.39,9.52,82.61a3.26,3.26,0,0,0,2.83,4.89h75.3a3.26,3.26,0,0,0,2.83-4.89L52.83,17.39A3.27,3.27,0,0,0,47.17,17.39Z" transform="translate(-8.08 -14.76)" style="fill:#ffd200;stroke:#000;stroke-miterlimit:10;stroke-width:2px"/><path d="M48.91,67,43.83,36.62a1.11,1.11,0,0,1,1.09-1.29H55.08a1.11,1.11,0,0,1,1.09,1.29L51.09,67A1.11,1.11,0,0,1,48.91,67Z" transform="translate(-8.08 -14.76)" style="stroke:#000;stroke-miterlimit:10;stroke-width:2px"/><circle cx="41.92" cy="62.8" r="4.46" style="stroke:#000;stroke-miterlimit:10;stroke-width:2px"/></svg>