<svg id="Layer_1" data-name="Layer 1" xmlns="http://www.w3.org/2000/svg" viewBox="0 0 95.83 52.77"><rect x="1" y="5.74" width="52.31" height="46.04" rx="6.06" style="fill:none;stroke:#000;stroke-miterlimit:10;stroke-width:2px"/><rect x="5.68" y="1" width="52.31" height="46.04" rx="6.22" style="fill:#29abe2"/><polygon points="5.68 20.82 25.39 1.11 31.84 1 5.87 26.96 5.68 20.82" style="fill:#fff"/><polygon points="5.68 31.62 36.19 1.11 45.88 1.11 5.85 41.14 5.68 31.62" style="fill:#fff"/><rect x="5.68" y="1" width="52.31" height="46.04" rx="6.06" style="fill:none;stroke:#000;stroke-miterlimit:10;stroke-width:2px"/><path d="M75.18,42.88a5.46,5.46,0,1,1,0,10.91H61.59" transform="translate(-1.16 -20.48)" style="fill:none;stroke:#000;stroke-linecap:round;stroke-miterlimit:10;stroke-width:2px"/><path d="M90.23,45.41a5.77,5.77,0,0,1,0,11.53" transform="translate(-1.16 -20.48)" style="fill:none;stroke:#000;stroke-linecap:round;stroke-miterlimit:10;stroke-width:2px"/><path d="M84.7,71a5.46,5.46,0,1,0,0-10.91H71.11" transform="translate(-1.16 -20.48)" style="fill:none;stroke:#000;stroke-linecap:round;stroke-miterlimit:10;stroke-width:2px"/><line x1="65.1" y1="36.46" x2="84.71" y2="36.46" style="fill:none;stroke:#000;stroke-linecap:round;stroke-miterlimit:10;stroke-width:2px"/><line x1="66.58" y1="39.62" x2="61.85" y2="39.62" style="fill:none;stroke:#000;stroke-linecap:round;stroke-miterlimit:10;stroke-width:2px"/></svg>